<svg width="89" height="34" viewBox="0 0 89 34" fill="none" xmlns="http://www.w3.org/2000/svg">
<path fill-rule="evenodd" clip-rule="evenodd" d="M46.9291 26.5799H45.2663L45.2586 8.49303H35.5386V10.2635C35.5386 15.7837 35.3384 22.1721 33.4278 26.5799H32.1384V33.0984H35.0459V29.2164H44.02V33.0976H46.9283V26.5791L46.9291 26.5799ZM59.843 25.4075C59.0116 25.9848 57.5575 26.8085 55.73 26.8085C53.1543 26.8085 51.8249 24.3367 51.8249 19.641H60.5488V17.8698C60.5488 10.8262 58.2641 8.23053 54.7739 8.23053C50.3292 8.23053 48.4594 13.0909 48.4594 19.7642C48.4594 26.1488 51.1182 29.5674 55.439 29.5674C57.5159 29.5674 59.261 28.9085 60.5904 27.8793L59.843 25.4075ZM26.6622 8.46685V17.3278H21.8433V8.46763H18.6025V29.2279H21.8433V19.8627H26.6622V29.2279H29.8614V8.46685H26.6622ZM72.5636 29.2202H76.0946L70.1542 18.2216L75.3472 8.45916H72.0648L67.0381 18.0568V8.45916H63.7973V29.2202H67.0381V18.8797L72.5636 29.2187V29.2202ZM88.3288 27.9208L87.5806 25.5314C86.8324 26.1904 85.6276 26.8085 84.0496 26.8085C81.4323 26.8085 80.1853 23.8425 80.1853 18.6526C80.1853 13.4212 81.848 10.8262 84.1735 10.8262C85.5029 10.8262 86.7492 11.5267 87.6222 12.268L88.0794 9.2197C87.1649 8.64313 86.0849 8.14893 84.2151 8.14893C79.3131 8.14893 76.779 12.3088 76.779 18.8174C76.779 25.9025 79.4794 29.4866 83.9665 29.4866C85.8771 29.4866 87.2072 28.8684 88.328 27.9208H88.3288ZM42.1048 26.653H36.5377C38.2813 22.246 38.4891 15.8606 38.4891 11.4944V11.1242H42.104V26.653H42.1048ZM57.1964 17.043H51.8372C52.045 13.3357 52.7509 10.9055 54.7447 10.9055C56.6145 10.9055 57.1964 13.5005 57.1964 17.043Z" fill="black"/>
<path fill-rule="evenodd" clip-rule="evenodd" d="M11.4244 18.2462V29.2449H14.6236V0H9.84554C5.1514 0 1.20471 3.17074 1.20471 9.34903C1.20471 13.7568 2.94981 16.1462 5.56708 17.4641L0 29.2449H3.69727L8.76553 18.2462H11.4244ZM11.4144 15.6805H9.7116C6.92806 15.6805 4.64257 14.1563 4.64257 9.41908C4.64257 4.51787 7.13513 2.76814 9.7116 2.76814H11.4144V15.6805Z" fill="#FF0000"/>
</svg>
