<svg width="118" height="28" viewBox="0 0 118 28" fill="none" xmlns="http://www.w3.org/2000/svg">
<path fill-rule="evenodd" clip-rule="evenodd" d="M2.68085 16.4751V26.8802H0.99292V0.309353H4.36878C6.23669 0.309353 7.69992 0.929488 8.7574 2.16741C9.81489 3.40651 10.3442 5.37594 10.3442 8.07569C10.3442 11.0005 9.7872 13.1305 8.67221 14.4681C7.55935 15.8057 6.07908 16.4751 4.23354 16.4751H2.68085ZM2.68085 1.83331V14.9511H4.23354C5.62861 14.9511 6.71485 14.4318 7.49225 13.3908C8.26753 12.3498 8.65623 10.616 8.65623 8.18823C8.65623 5.98317 8.28457 4.37247 7.54231 3.35727C6.79898 2.34091 5.75321 1.83331 4.40286 1.83331H2.68085ZM16.3195 25.8392C17.1076 25.8392 17.7764 25.4805 18.328 24.7619C18.8797 24.0433 19.3131 23.177 19.6273 22.1606V16.9955H17.8051C16.3866 16.9955 15.3409 17.3672 14.6657 18.1092C13.9895 18.8536 13.6529 20.0435 13.6529 21.6776C13.6529 23.0152 13.8947 24.0433 14.3782 24.7619C14.8616 25.4805 15.5091 25.8404 16.3195 25.8404V25.8392ZM20.1001 26.8802C20.033 26.6328 19.9595 26.3175 19.8807 25.933C19.7853 25.4117 19.7234 24.8836 19.6954 24.3528C19.2907 25.2449 18.7838 25.9506 18.1757 26.4711C17.5687 26.9916 16.8371 27.2518 15.982 27.2518C14.834 27.2518 13.9 26.7747 13.1801 25.8216C12.4591 24.8674 12.0992 23.5357 12.0992 21.8265C12.0992 19.8196 12.5837 18.3026 13.5507 17.2745C14.5198 16.2465 15.9255 15.7318 17.7711 15.7318H19.6273V13.3908C19.6273 11.9536 19.3919 10.9138 18.9191 10.269C18.4462 9.62427 17.737 9.30306 16.7924 9.30306C16.0714 9.30306 15.3973 9.48242 14.7669 9.84231C14.1437 10.1941 13.6098 10.711 13.2131 11.3463L12.7744 9.67467C13.1119 9.1788 13.6242 8.7392 14.3111 8.35586C14.9969 7.97136 15.8233 7.7791 16.7924 7.7791C18.2098 7.7791 19.295 8.21871 20.05 9.09909C20.804 9.9783 21.181 11.3463 21.181 13.2044V23.4243C21.181 24.0691 21.214 24.7185 21.2822 25.375C21.3493 26.0315 21.4398 26.5332 21.5516 26.8802H20.1001ZM29.5866 25.7278C30.1265 25.7278 30.6047 25.6294 31.0211 25.4313C31.4052 25.2541 31.7636 25.016 32.0849 24.7244C32.4225 24.4524 32.7143 24.1183 32.9624 23.7209L33.4683 25.171C33.2121 25.5767 32.8923 25.9288 32.5237 26.2108C32.2085 26.484 31.7974 26.7254 31.2916 26.9365C30.7846 27.1475 30.2053 27.2518 29.5525 27.2518C27.8422 27.2518 26.5196 26.4031 25.5856 24.7068C24.6516 23.0093 24.1852 20.6249 24.1852 17.5524C24.1852 14.4564 24.6463 12.0532 25.5696 10.3429C26.4919 8.63369 27.8305 7.7791 29.5866 7.7791C30.4641 7.7791 31.2064 7.94674 31.8144 8.28084C32.4215 8.61494 32.9177 9.0311 33.3 9.5258L32.8613 11.3839C32.4749 10.8101 32.0075 10.3083 31.4769 9.89741C30.9369 9.47539 30.3065 9.26555 29.5866 9.26555C28.281 9.26555 27.3183 9.98416 26.7006 11.4214C26.0808 12.8586 25.772 14.9019 25.772 17.5524C25.772 20.129 26.0755 22.136 26.6836 23.5732C27.2906 25.0092 28.2586 25.7278 29.5866 25.7278ZM43.2253 9.56214H37.6216V26.8802H36.0348V8.15071H44.778V26.8802H43.2253V9.56331V9.56214ZM56.3571 13.8363C56.3571 13.3416 56.3677 12.8891 56.3911 12.4799C56.4124 12.072 56.4476 11.6687 56.4923 11.2725H56.3911C56.2817 11.6848 56.1465 12.0882 55.9865 12.4799C55.8278 12.8644 55.6595 13.2665 55.4796 13.6874L49.9429 26.8802H48.5926V8.15071H50.0782V21.1571C50.0817 22.0385 50.0366 22.9194 49.9429 23.7948H50.0441C50.157 23.3751 50.2922 22.9601 50.4488 22.551C50.6064 22.1418 50.7757 21.7269 50.9557 21.306L56.4923 8.15071H57.8767V26.8802H56.3571V13.8363ZM66.4506 25.7278C66.9916 25.7278 67.4697 25.6294 67.8861 25.4313C68.3014 25.232 68.6561 24.9975 68.9489 24.7244C69.2912 24.4474 69.588 24.108 69.8264 23.7209L70.3334 25.171C70.0769 25.5768 69.7566 25.9289 69.3877 26.2108C69.0725 26.484 68.6625 26.7254 68.1555 26.9365C67.6497 27.1475 67.0693 27.2518 66.4176 27.2518C64.7062 27.2518 63.3846 26.4031 62.4507 24.7068C61.5167 23.0093 61.0492 20.6249 61.0492 17.5524C61.0492 14.4564 61.5114 12.0532 62.4336 10.3429C63.3559 8.63369 64.6956 7.7791 66.4506 7.7791C67.3292 7.7791 68.0714 7.94674 68.6795 8.28084C69.2865 8.61494 69.7817 9.0311 70.164 9.5258L69.7253 11.3839C69.3389 10.8101 68.8715 10.3083 68.3408 9.89741C67.8009 9.47539 67.1715 9.26555 66.4506 9.26555C65.146 9.26555 64.1833 9.98416 63.5646 11.4214C62.9459 12.8586 62.636 14.9019 62.636 17.5524C62.636 20.129 62.9395 22.136 63.5475 23.5732C64.1546 25.0092 65.1237 25.7278 66.4506 25.7278ZM76.2406 25.8392C77.0286 25.8392 77.6985 25.4805 78.2491 24.7619C78.8007 24.0433 79.2341 23.177 79.5483 22.1606V16.9955H77.7272C76.3087 16.9955 75.2619 17.3672 74.5867 18.1092C73.9116 18.8536 73.574 20.0435 73.574 21.6776C73.574 23.0152 73.8157 24.0433 74.3003 24.7619C74.7837 25.4805 75.4302 25.8404 76.2406 25.8404V25.8392ZM80.0211 26.8802C79.954 26.6328 79.8816 26.3175 79.8028 25.933C79.7071 25.4117 79.6448 24.8837 79.6164 24.3528C79.2118 25.2449 78.7049 25.9506 78.0978 26.4711C77.4908 26.9916 76.7581 27.2518 75.9041 27.2518C74.755 27.2518 73.821 26.7747 73.1011 25.8216C72.3812 24.8674 72.0213 23.5357 72.0213 21.8265C72.0213 19.8196 72.5048 18.3026 73.4728 17.2745C74.4408 16.2465 75.8476 15.7318 77.6921 15.7318H79.5494V13.3908C79.5494 11.9536 79.3129 10.9138 78.8401 10.269C78.3673 9.62427 77.658 9.30306 76.7134 9.30306C75.9935 9.30306 75.3183 9.48242 74.6879 9.84231C74.0651 10.1943 73.5316 10.7111 73.1352 11.3463L72.6965 9.67467C73.034 9.1788 73.5463 8.7392 74.2321 8.35586C74.919 7.97136 75.7454 7.7791 76.7134 7.7791C78.1319 7.7791 79.2171 8.21871 79.9721 9.09909C80.7251 9.9783 81.102 11.3463 81.102 13.2044V23.4243C81.102 24.0691 81.1361 24.7185 81.2032 25.375C81.2714 26.0315 81.3608 26.5332 81.4737 26.8802H80.0222H80.0211ZM92.1412 17.8501H86.3352V26.8802H84.7484V8.15071H86.3352V16.4387H92.1412V8.15071H93.728V26.8802H92.1412V17.8501ZM105.307 13.8363C105.307 13.3416 105.318 12.8891 105.341 12.4799C105.362 12.072 105.398 11.6687 105.442 11.2725H105.341C105.232 11.6848 105.096 12.0882 104.936 12.4799C104.778 12.8644 104.61 13.2665 104.43 13.6874L98.8929 26.8802H97.5426V8.15071H99.0282V21.1571C99.0317 22.0385 98.9866 22.9194 98.8929 23.7948H98.9941C99.107 23.3751 99.2422 22.9601 99.3988 22.551C99.5564 22.1418 99.7257 21.7269 99.9057 21.306L105.442 8.15071H106.827V26.8802H105.307V13.8363ZM116.447 18.5183V9.52697H115.232C114.264 9.52697 113.449 9.87865 112.785 10.5855C112.121 11.2912 111.788 12.4377 111.788 14.0227C111.788 15.583 112.086 16.7224 112.683 17.441C113.279 18.1596 114.096 18.5195 115.131 18.5195H116.447V18.5183ZM114.388 19.8571L111.282 26.8802H109.629L113.004 19.4104C112.172 19.0892 111.497 18.4691 110.979 17.5524C110.461 16.6357 110.202 15.4845 110.202 14.0965C110.202 13.0813 110.331 12.2021 110.59 11.4589C110.849 10.7145 111.197 10.0955 111.637 9.59965C112.076 9.10452 112.613 8.72916 113.207 8.50357C113.836 8.26472 114.498 8.14578 115.164 8.15189H118V26.8802H116.447V19.8571H114.388Z" fill="black"/>
</svg>
