<svg width="32" height="33" viewBox="0 0 32 33" fill="none" xmlns="http://www.w3.org/2000/svg">
<path fill-rule="evenodd" clip-rule="evenodd" d="M12.1438 7.18445C12.1438 7.18445 12.945 5.7431 13.7462 4.94191C14.084 4.60016 14.4543 4.29224 14.852 4.02252C14.9423 3.96169 15.0509 3.93412 15.1593 3.94454C15.2677 3.95496 15.3691 4.00271 15.4461 4.07963L16.8502 5.4837C16.9266 5.55943 16.9745 5.65928 16.9856 5.7663C16.9968 5.87331 16.9705 5.98088 16.9113 6.07071C16.7368 6.33408 16.4377 6.73388 15.9879 7.18445C15.1867 7.98564 13.7454 8.78683 13.7454 8.78683L12.1438 7.18445Z" fill="#FFCC00"/>
<path fill-rule="evenodd" clip-rule="evenodd" d="M19.9182 8.3806L3.57867 4.5563L2.34277 5.7922L14.858 13.44L16.7714 15.3383L21.7974 10.2305L19.9182 8.3806Z" fill="#666666"/>
<path fill-rule="evenodd" clip-rule="evenodd" d="M23.4102 18.0647C23.4102 18.0647 24.2114 16.6233 25.0118 15.8221C25.3499 15.4806 25.7205 15.173 26.1184 14.9035C26.2086 14.8429 26.3171 14.8155 26.4253 14.8259C26.5335 14.8363 26.6348 14.8839 26.7118 14.9607L28.1158 16.3647C28.1921 16.4404 28.2398 16.5401 28.2509 16.6469C28.2621 16.7538 28.2359 16.8612 28.1769 16.951C28.0024 17.2151 27.7041 17.6149 27.2536 18.0647C26.4532 18.8659 25.0118 19.6671 25.0118 19.6671L23.4094 18.0647H23.4102Z" fill="#FFCC00"/>
<path fill-rule="evenodd" clip-rule="evenodd" d="M16.7639 15.3383L18.5725 17.1327L26.1958 29.6876L27.434 28.4549L23.647 12.0582L21.79 10.2305L16.7639 15.3383Z" fill="#666666"/>
<path opacity="0.2" fill-rule="evenodd" clip-rule="evenodd" d="M19.5106 18.64L24.0854 13.9598L23.3381 10.7995L17.675 15.7526L19.5106 18.64Z" fill="black"/>
<path fill-rule="evenodd" clip-rule="evenodd" d="M8.30383 21.2775L0.691721 20.2391L0 20.9317L6.91959 25.0836C6.91959 25.0836 7.54944 23.7223 8.30383 21.2775ZM6.91959 25.0836L11.0715 32.0032L11.7632 31.3114L10.7249 23.6993C9.47627 24.0912 8.67349 24.088 8.28955 23.6652L6.91959 25.0836Z" fill="#666666"/>
<path fill-rule="evenodd" clip-rule="evenodd" d="M31.8278 0.172028C31.1718 -0.483203 27.5514 0.740001 24.5647 3.72741L19.9115 8.38067L14.8513 13.4401L11.4276 16.8654C10.1996 18.0925 8.45288 20.2312 7.60885 21.6233C7.09482 22.4721 5.46705 25.0177 6.22541 25.7752C6.98297 26.5328 9.55709 24.9066 10.3765 24.391C11.7798 23.5105 13.9153 21.7907 15.1337 20.5723L18.5733 17.1327L23.6485 12.0582L28.2716 7.43431C31.2583 4.44769 32.4838 0.828053 31.8278 0.172028Z" fill="#FFCC00"/>
<path fill-rule="evenodd" clip-rule="evenodd" d="M30.8983 3.97873C30.0574 5.48989 28.9374 6.76783 28.3845 7.32469C27.8316 7.88156 26.9645 8.76684 24.5118 11.2045C22.0598 13.6422 17.4311 18.2899 15.4091 20.2968C14.0519 21.616 13.0976 22.5085 10.7939 24.1243L12.6343 21.9349C17.9745 15.0241 21.9844 11.7725 28.1838 6.3355L30.8991 3.97873H30.8983Z" fill="#FFA800"/>
</svg>
